<svg width="64" height="64" viewBox="0 0 64 64" fill="none" xmlns="http://www.w3.org/2000/svg">
<path d="M10 50C7.23858 50 5 47.7614 5 45V13C5 10.2386 7.23858 8 10 8H54C56.7614 8 59 10.2386 59 13V45C59 47.7614 56.7614 50 54 50H34" stroke="#110F0F" stroke-linecap="round"/>
<rect x="11.5" y="19.5" width="20" height="36" rx="3.5" stroke="black"/>
<path d="M18 53H24.5" stroke="#110F0F" stroke-linecap="round"/>
<circle cx="9" cy="13" r="1" fill="#110F0F"/>
<circle cx="12" cy="13" r="1" fill="#110F0F"/>
<circle cx="15" cy="13" r="1" fill="#110F0F"/>
<path d="M10 50C7.23858 50 5 47.7614 5 45V13C5 10.2386 7.23858 8 10 8H54C56.7614 8 59 10.2386 59 13V45C59 47.7614 56.7614 50 54 50H34" stroke="#110F0F" stroke-linecap="round"/>
<circle cx="9" cy="13" r="1" fill="#110F0F"/>
<circle cx="12" cy="13" r="1" fill="#110F0F"/>
<circle cx="15" cy="13" r="1" fill="#110F0F"/>
</svg>
