<svg width="64" height="64" viewBox="0 0 64 64" fill="none" xmlns="http://www.w3.org/2000/svg">
<path d="M10 11.5H54C56.4853 11.5 58.5 13.5147 58.5 16V48C58.5 50.4853 56.4853 52.5 54 52.5H10C7.51472 52.5 5.5 50.4853 5.5 48V16C5.5 13.5147 7.51472 11.5 10 11.5Z" stroke="#110F0F" stroke-linecap="round"/>
<path d="M13.5 22H35.5" stroke="#110F0F" stroke-linecap="round"/>
<path d="M13.5 26H48.5" stroke="#110F0F" stroke-linecap="round"/>
<path d="M13.5 30L24 30" stroke="#110F0F" stroke-linecap="round"/>
<path d="M17 37L23.5 37" stroke="#110F0F" stroke-linecap="round"/>
<path d="M17 43L31.5 43" stroke="#110F0F" stroke-linecap="round"/>
<path d="M17 40L46.5 40" stroke="#110F0F" stroke-linecap="round"/>
<path d="M17 46H36" stroke="#110F0F" stroke-linecap="round"/>
<path d="M11 21V48" stroke="#110F0F" stroke-linecap="round"/>
<path d="M15 36L15 47" stroke="#110F0F" stroke-linecap="round"/>
<circle cx="9" cy="16" r="1" fill="#110F0F"/>
<circle cx="12" cy="16" r="1" fill="#110F0F"/>
<circle cx="15" cy="16" r="1" fill="#110F0F"/>
</svg>
