<svg width="64" height="64" viewBox="0 0 64 64" fill="none" xmlns="http://www.w3.org/2000/svg">
<path d="M18 37V55C18 57.2091 19.7909 59 22 59H43C45.2091 59 47 57.2091 47 55V49M18 11V9C18 6.79086 19.7909 5 22 5H43C45.2091 5 47 6.79086 47 9V32" stroke="#110F0F" stroke-linecap="round"/>
<path d="M28 55H37" stroke="#110F0F" stroke-linecap="round"/>
<path d="M32.1742 29.4355L31.7693 29.142L31.6076 29.3652L31.71 29.6212L32.1742 29.4355ZM29.0929 32.3643L29.251 31.89L29.018 31.8123L28.8141 31.9493L29.0929 32.3643ZM34 34L33.8419 34.4743L34.8646 34.8153L34.4642 33.8143L34 34ZM33.5 24C33.5 25.861 32.876 27.6151 31.7693 29.142L32.579 29.7289C33.7964 28.0493 34.5 26.093 34.5 24H33.5ZM20 13.5C27.5749 13.5 33.5 18.3066 33.5 24H34.5C34.5 17.5431 27.8891 12.5 20 12.5V13.5ZM6.5 24C6.5 18.3066 12.4251 13.5 20 13.5V12.5C12.1109 12.5 5.5 17.5431 5.5 24H6.5ZM20 34.5C12.4251 34.5 6.5 29.6934 6.5 24H5.5C5.5 30.4569 12.1109 35.5 20 35.5V34.5ZM28.8141 31.9493C26.455 33.534 23.3773 34.5 20 34.5V35.5C23.5643 35.5 26.8383 34.4812 29.3717 32.7794L28.8141 31.9493ZM34.1581 33.5257L29.251 31.89L28.9348 32.8386L33.8419 34.4743L34.1581 33.5257ZM31.71 29.6212L33.5358 34.1857L34.4642 33.8143L32.6384 29.2498L31.71 29.6212Z" fill="#110F0F"/>
<path d="M22.2625 21.6607L19.307 17.4386C19.1469 17.2098 18.8189 17.1811 18.6214 17.3786C18.2293 17.7707 18.0402 18.3218 18.109 18.872L18.456 21.648C18.4794 21.8349 18.3336 22 18.1452 22H15.838C14.4549 22 13.4894 23.3702 13.9545 24.6727L15.263 28.3363C15.4051 28.7343 15.7821 29 16.2047 29H23.5C24.0523 29 24.5 28.5523 24.5 28V23C24.5 22.4477 24.0523 22 23.5 22H22.9142C22.6546 22 22.4113 21.8733 22.2625 21.6607Z" stroke="#110F0F" stroke-linecap="round"/>
<path d="M43.0433 43.8204L43.4482 43.527L43.6099 43.7502L43.5076 44.0061L43.0433 43.8204ZM44.804 45.494L44.6459 45.0197L44.879 44.942L45.0829 45.079L44.804 45.494ZM42 46.4287L42.1581 46.9031L41.1354 47.244L41.5358 46.243L42 46.4287ZM42.5 40.7144C42.5 41.7282 42.8395 42.6872 43.4482 43.527L42.6385 44.1138C41.9191 43.1213 41.5 41.9601 41.5 40.7144H42.5ZM50 34.9287C45.7388 34.9287 42.5 37.6247 42.5 40.7144H41.5C41.5 36.8612 45.4246 33.9287 50 33.9287V34.9287ZM57.5 40.7144C57.5 37.6247 54.2612 34.9287 50 34.9287V33.9287C54.5754 33.9287 58.5 36.8612 58.5 40.7144H57.5ZM50 46.5001C54.2612 46.5001 57.5 43.8042 57.5 40.7144H58.5C58.5 44.5677 54.5754 47.5001 50 47.5001V46.5001ZM45.0829 45.079C46.3936 45.9595 48.1102 46.5001 50 46.5001V47.5001C47.9232 47.5001 46.0103 46.9067 44.5252 45.9091L45.0829 45.079ZM41.8419 45.9544L44.6459 45.0197L44.9622 45.9684L42.1581 46.9031L41.8419 45.9544ZM43.5076 44.0061L42.4642 46.6144L41.5358 46.243L42.5791 43.6347L43.5076 44.0061Z" fill="#110F0F"/>
<rect x="28" y="7" width="10" height="2" rx="1" fill="#110F0F"/>
</svg>
