<svg width="421" height="153" viewBox="0 0 421 153" fill="none" xmlns="http://www.w3.org/2000/svg">
<path d="M0 76.1524C0 34.0946 34.0946 0 76.1524 0V0C118.21 0 152.305 34.0946 152.305 76.1524V76.1524C152.305 118.21 118.21 152.305 76.1524 152.305V152.305C34.0946 152.305 0 118.21 0 76.1524V76.1524Z" fill="#E96211"/>
<path d="M197.096 73.5762C193.768 73.5762 190.76 72.8295 188.072 71.3362C185.384 69.8002 183.272 67.6668 181.736 64.9362C180.2 62.1628 179.432 58.9628 179.432 55.3362C179.432 51.7522 180.221 48.5735 181.8 45.8002C183.378 43.0268 185.533 40.8935 188.264 39.4002C190.994 37.9068 194.045 37.1602 197.416 37.1602C200.786 37.1602 203.837 37.9068 206.568 39.4002C209.298 40.8935 211.453 43.0268 213.032 45.8002C214.61 48.5735 215.4 51.7522 215.4 55.3362C215.4 58.9202 214.589 62.0988 212.968 64.8722C211.346 67.6455 209.128 69.8002 206.312 71.3362C203.538 72.8295 200.466 73.5762 197.096 73.5762ZM197.096 67.2402C198.973 67.2402 200.722 66.7922 202.344 65.8962C204.008 65.0002 205.352 63.6562 206.376 61.8642C207.4 60.0722 207.912 57.8962 207.912 55.3362C207.912 52.7762 207.421 50.6215 206.44 48.8722C205.458 47.0802 204.157 45.7362 202.536 44.8402C200.914 43.9442 199.165 43.4962 197.288 43.4962C195.41 43.4962 193.661 43.9442 192.04 44.8402C190.461 45.7362 189.202 47.0802 188.264 48.8722C187.325 50.6215 186.856 52.7762 186.856 55.3362C186.856 59.1335 187.816 62.0775 189.736 64.1682C191.698 66.2162 194.152 67.2402 197.096 67.2402Z" fill="#0F0F11"/>
<path d="M232.468 42.8562C233.535 41.0642 234.943 39.6775 236.692 38.6962C238.484 37.6722 240.596 37.1602 243.028 37.1602V44.7122H241.172C238.313 44.7122 236.137 45.4375 234.644 46.8882C233.193 48.3388 232.468 50.8562 232.468 54.4402V73.0002H225.172V37.7362H232.468V42.8562Z" fill="#0F0F11"/>
<path d="M249.863 55.2082C249.863 51.6668 250.588 48.5308 252.039 45.8002C253.532 43.0695 255.537 40.9575 258.055 39.4642C260.615 37.9282 263.431 37.1602 266.503 37.1602C269.276 37.1602 271.687 37.7148 273.735 38.8242C275.825 39.8908 277.489 41.2348 278.727 42.8562V37.7362H286.087V73.0002H278.727V67.7522C277.489 69.4162 275.804 70.8028 273.671 71.9122C271.537 73.0215 269.105 73.5762 266.375 73.5762C263.345 73.5762 260.572 72.8082 258.055 71.2722C255.537 69.6935 253.532 67.5175 252.039 64.7442C250.588 61.9282 249.863 58.7495 249.863 55.2082ZM278.727 55.3362C278.727 52.9042 278.215 50.7922 277.191 49.0002C276.209 47.2082 274.908 45.8428 273.287 44.9042C271.665 43.9655 269.916 43.4962 268.039 43.4962C266.161 43.4962 264.412 43.9655 262.791 44.9042C261.169 45.8002 259.847 47.1442 258.823 48.9362C257.841 50.6855 257.351 52.7762 257.351 55.2082C257.351 57.6402 257.841 59.7735 258.823 61.6082C259.847 63.4428 261.169 64.8508 262.791 65.8322C264.455 66.7708 266.204 67.2402 268.039 67.2402C269.916 67.2402 271.665 66.7708 273.287 65.8322C274.908 64.8935 276.209 63.5282 277.191 61.7362C278.215 59.9015 278.727 57.7682 278.727 55.3362Z" fill="#0F0F11"/>
<path d="M316.022 37.1602C318.795 37.1602 321.27 37.7362 323.446 38.8882C325.664 40.0402 327.392 41.7468 328.63 44.0082C329.867 46.2695 330.486 49.0002 330.486 52.2002V73.0002H323.254V53.2882C323.254 50.1308 322.464 47.7202 320.886 46.0562C319.307 44.3495 317.152 43.4962 314.422 43.4962C311.691 43.4962 309.515 44.3495 307.894 46.0562C306.315 47.7202 305.526 50.1308 305.526 53.2882V73.0002H298.23V37.7362H305.526V41.7682C306.72 40.3175 308.235 39.1868 310.07 38.3762C311.947 37.5655 313.931 37.1602 316.022 37.1602Z" fill="#0F0F11"/>
<path d="M356.56 37.1602C359.291 37.1602 361.701 37.7148 363.792 38.8242C365.925 39.8908 367.589 41.2348 368.784 42.8562V37.7362H376.144V73.5762C376.144 76.8188 375.461 79.6988 374.096 82.2162C372.731 84.7762 370.747 86.7815 368.144 88.2322C365.584 89.6828 362.512 90.4082 358.928 90.4082C354.149 90.4082 350.181 89.2775 347.024 87.0162C343.867 84.7975 342.075 81.7682 341.648 77.9282H348.88C349.435 79.7628 350.608 81.2348 352.4 82.3442C354.235 83.4962 356.411 84.0722 358.928 84.0722C361.872 84.0722 364.24 83.1762 366.032 81.3842C367.867 79.5922 368.784 76.9895 368.784 73.5762V67.6882C367.547 69.3522 365.861 70.7602 363.728 71.9122C361.637 73.0215 359.248 73.5762 356.56 73.5762C353.488 73.5762 350.672 72.8082 348.112 71.2722C345.595 69.6935 343.589 67.5175 342.096 64.7442C340.645 61.9282 339.92 58.7495 339.92 55.2082C339.92 51.6668 340.645 48.5308 342.096 45.8002C343.589 43.0695 345.595 40.9575 348.112 39.4642C350.672 37.9282 353.488 37.1602 356.56 37.1602ZM368.784 55.3362C368.784 52.9042 368.272 50.7922 367.248 49.0002C366.267 47.2082 364.965 45.8428 363.344 44.9042C361.723 43.9655 359.973 43.4962 358.096 43.4962C356.219 43.4962 354.469 43.9655 352.848 44.9042C351.227 45.8002 349.904 47.1442 348.88 48.9362C347.899 50.6855 347.408 52.7762 347.408 55.2082C347.408 57.6402 347.899 59.7735 348.88 61.6082C349.904 63.4428 351.227 64.8508 352.848 65.8322C354.512 66.7708 356.261 67.2402 358.096 67.2402C359.973 67.2402 361.723 66.7708 363.344 65.8322C364.965 64.8935 366.267 63.5282 367.248 61.7362C368.272 59.9015 368.784 57.7682 368.784 55.3362Z" fill="#0F0F11"/>
<path d="M420.607 54.5042C420.607 55.8268 420.522 57.0215 420.351 58.0882H393.407C393.62 60.9042 394.666 63.1655 396.543 64.8722C398.42 66.5788 400.724 67.4322 403.455 67.4322C407.38 67.4322 410.154 65.7895 411.775 62.5042H419.647C418.58 65.7468 416.639 68.4135 413.823 70.5042C411.05 72.5522 407.594 73.5762 403.455 73.5762C400.084 73.5762 397.055 72.8295 394.367 71.3362C391.722 69.8002 389.631 67.6668 388.095 64.9362C386.602 62.1628 385.855 58.9628 385.855 55.3362C385.855 51.7095 386.58 48.5308 388.031 45.8002C389.524 43.0268 391.594 40.8935 394.239 39.4002C396.927 37.9068 399.999 37.1602 403.455 37.1602C406.783 37.1602 409.748 37.8855 412.351 39.3362C414.954 40.7868 416.98 42.8348 418.431 45.4802C419.882 48.0828 420.607 51.0908 420.607 54.5042ZM412.991 52.2002C412.948 49.5122 411.988 47.3575 410.111 45.7362C408.234 44.1148 405.908 43.3042 403.135 43.3042C400.618 43.3042 398.463 44.1148 396.671 45.7362C394.879 47.3148 393.812 49.4695 393.471 52.2002H412.991Z" fill="#0F0F11"/>
<path d="M178.548 102.064C178.548 100.048 178.956 98.284 179.772 96.772C180.588 95.236 181.704 94.048 183.12 93.208C184.56 92.368 186.168 91.948 187.944 91.948C189.48 91.948 190.908 92.308 192.228 93.028C193.548 93.724 194.556 94.648 195.252 95.8V85.36H198.564V112H195.252V108.292C194.604 109.468 193.644 110.44 192.372 111.208C191.1 111.952 189.612 112.324 187.908 112.324C186.156 112.324 184.56 111.892 183.12 111.028C181.704 110.164 180.588 108.952 179.772 107.392C178.956 105.832 178.548 104.056 178.548 102.064ZM195.252 102.1C195.252 100.612 194.952 99.316 194.352 98.212C193.752 97.108 192.936 96.268 191.904 95.692C190.896 95.092 189.78 94.792 188.556 94.792C187.332 94.792 186.216 95.08 185.208 95.656C184.2 96.232 183.396 97.072 182.796 98.176C182.196 99.28 181.896 100.576 181.896 102.064C181.896 103.576 182.196 104.896 182.796 106.024C183.396 107.128 184.2 107.98 185.208 108.58C186.216 109.156 187.332 109.444 188.556 109.444C189.78 109.444 190.896 109.156 191.904 108.58C192.936 107.98 193.752 107.128 194.352 106.024C194.952 104.896 195.252 103.588 195.252 102.1Z" fill="#6E6E6E"/>
<path d="M224.26 101.38C224.26 102.004 224.224 102.664 224.152 103.36H208.384C208.504 105.304 209.164 106.828 210.364 107.932C211.588 109.012 213.064 109.552 214.792 109.552C216.208 109.552 217.384 109.228 218.32 108.58C219.28 107.908 219.952 107.02 220.336 105.916H223.864C223.336 107.812 222.28 109.36 220.696 110.56C219.112 111.736 217.144 112.324 214.792 112.324C212.92 112.324 211.24 111.904 209.752 111.064C208.288 110.224 207.136 109.036 206.296 107.5C205.456 105.94 205.036 104.14 205.036 102.1C205.036 100.06 205.444 98.272 206.26 96.736C207.076 95.2 208.216 94.024 209.68 93.208C211.168 92.368 212.872 91.948 214.792 91.948C216.664 91.948 218.32 92.356 219.76 93.172C221.2 93.988 222.304 95.116 223.072 96.556C223.864 97.972 224.26 99.58 224.26 101.38ZM220.876 100.696C220.876 99.448 220.6 98.38 220.048 97.492C219.496 96.58 218.74 95.896 217.78 95.44C216.844 94.96 215.8 94.72 214.648 94.72C212.992 94.72 211.576 95.248 210.4 96.304C209.248 97.36 208.588 98.824 208.42 100.696H220.876Z" fill="#6E6E6E"/>
<path d="M237.728 112.324C236.216 112.324 234.86 112.072 233.66 111.568C232.46 111.04 231.512 110.32 230.816 109.408C230.12 108.472 229.736 107.404 229.664 106.204H233.048C233.144 107.188 233.6 107.992 234.416 108.616C235.256 109.24 236.348 109.552 237.692 109.552C238.94 109.552 239.924 109.276 240.644 108.724C241.364 108.172 241.724 107.476 241.724 106.636C241.724 105.772 241.34 105.136 240.572 104.728C239.804 104.296 238.616 103.876 237.008 103.468C235.544 103.084 234.344 102.7 233.408 102.316C232.496 101.908 231.704 101.32 231.032 100.552C230.384 99.76 230.06 98.728 230.06 97.456C230.06 96.448 230.36 95.524 230.96 94.684C231.56 93.844 232.412 93.184 233.516 92.704C234.62 92.2 235.88 91.948 237.296 91.948C239.48 91.948 241.244 92.5 242.588 93.604C243.932 94.708 244.652 96.22 244.748 98.14H241.472C241.4 97.108 240.98 96.28 240.212 95.656C239.468 95.032 238.46 94.72 237.188 94.72C236.012 94.72 235.076 94.972 234.38 95.476C233.684 95.98 233.336 96.64 233.336 97.456C233.336 98.104 233.54 98.644 233.948 99.076C234.38 99.484 234.908 99.82 235.532 100.084C236.18 100.324 237.068 100.6 238.196 100.912C239.612 101.296 240.764 101.68 241.652 102.064C242.54 102.424 243.296 102.976 243.92 103.72C244.568 104.464 244.904 105.436 244.928 106.636C244.928 107.716 244.628 108.688 244.028 109.552C243.428 110.416 242.576 111.1 241.472 111.604C240.392 112.084 239.144 112.324 237.728 112.324Z" fill="#6E6E6E"/>
<path d="M253.405 89.068C252.781 89.068 252.253 88.852 251.821 88.42C251.389 87.988 251.173 87.46 251.173 86.836C251.173 86.212 251.389 85.684 251.821 85.252C252.253 84.82 252.781 84.604 253.405 84.604C254.005 84.604 254.509 84.82 254.917 85.252C255.349 85.684 255.565 86.212 255.565 86.836C255.565 87.46 255.349 87.988 254.917 88.42C254.509 88.852 254.005 89.068 253.405 89.068ZM254.989 92.272V112H251.713V92.272H254.989Z" fill="#6E6E6E"/>
<path d="M270.868 91.948C272.572 91.948 274.06 92.32 275.332 93.064C276.628 93.808 277.588 94.744 278.212 95.872V92.272H281.524V112.432C281.524 114.232 281.14 115.828 280.372 117.22C279.604 118.636 278.5 119.74 277.06 120.532C275.644 121.324 273.988 121.72 272.092 121.72C269.5 121.72 267.34 121.108 265.612 119.884C263.884 118.66 262.864 116.992 262.552 114.88H265.792C266.152 116.08 266.896 117.04 268.024 117.76C269.152 118.504 270.508 118.876 272.092 118.876C273.892 118.876 275.356 118.312 276.484 117.184C277.636 116.056 278.212 114.472 278.212 112.432V108.292C277.564 109.444 276.604 110.404 275.332 111.172C274.06 111.94 272.572 112.324 270.868 112.324C269.116 112.324 267.52 111.892 266.08 111.028C264.664 110.164 263.548 108.952 262.732 107.392C261.916 105.832 261.508 104.056 261.508 102.064C261.508 100.048 261.916 98.284 262.732 96.772C263.548 95.236 264.664 94.048 266.08 93.208C267.52 92.368 269.116 91.948 270.868 91.948ZM278.212 102.1C278.212 100.612 277.912 99.316 277.312 98.212C276.712 97.108 275.896 96.268 274.864 95.692C273.856 95.092 272.74 94.792 271.516 94.792C270.292 94.792 269.176 95.08 268.168 95.656C267.16 96.232 266.356 97.072 265.756 98.176C265.156 99.28 264.856 100.576 264.856 102.064C264.856 103.576 265.156 104.896 265.756 106.024C266.356 107.128 267.16 107.98 268.168 108.58C269.176 109.156 270.292 109.444 271.516 109.444C272.74 109.444 273.856 109.156 274.864 108.58C275.896 107.98 276.712 107.128 277.312 106.024C277.912 104.896 278.212 103.588 278.212 102.1Z" fill="#6E6E6E"/>
<path d="M298.832 91.912C301.232 91.912 303.176 92.644 304.664 94.108C306.152 95.548 306.896 97.636 306.896 100.372V112H303.656V100.84C303.656 98.872 303.164 97.372 302.18 96.34C301.196 95.284 299.852 94.756 298.148 94.756C296.42 94.756 295.04 95.296 294.008 96.376C293 97.456 292.496 99.028 292.496 101.092V112H289.22V92.272H292.496V95.08C293.144 94.072 294.02 93.292 295.124 92.74C296.252 92.188 297.488 91.912 298.832 91.912Z" fill="#6E6E6E"/>
<path d="M321.392 112.324C319.88 112.324 318.524 112.072 317.324 111.568C316.124 111.04 315.176 110.32 314.48 109.408C313.784 108.472 313.4 107.404 313.328 106.204H316.712C316.808 107.188 317.264 107.992 318.08 108.616C318.92 109.24 320.012 109.552 321.356 109.552C322.604 109.552 323.588 109.276 324.308 108.724C325.028 108.172 325.388 107.476 325.388 106.636C325.388 105.772 325.004 105.136 324.236 104.728C323.468 104.296 322.28 103.876 320.672 103.468C319.208 103.084 318.008 102.7 317.072 102.316C316.16 101.908 315.368 101.32 314.696 100.552C314.048 99.76 313.724 98.728 313.724 97.456C313.724 96.448 314.024 95.524 314.624 94.684C315.224 93.844 316.076 93.184 317.18 92.704C318.284 92.2 319.544 91.948 320.96 91.948C323.144 91.948 324.908 92.5 326.252 93.604C327.596 94.708 328.316 96.22 328.412 98.14H325.136C325.064 97.108 324.644 96.28 323.876 95.656C323.132 95.032 322.124 94.72 320.852 94.72C319.676 94.72 318.74 94.972 318.044 95.476C317.348 95.98 317 96.64 317 97.456C317 98.104 317.204 98.644 317.612 99.076C318.044 99.484 318.572 99.82 319.196 100.084C319.844 100.324 320.732 100.6 321.86 100.912C323.276 101.296 324.428 101.68 325.316 102.064C326.204 102.424 326.96 102.976 327.584 103.72C328.232 104.464 328.568 105.436 328.592 106.636C328.592 107.716 328.292 108.688 327.692 109.552C327.092 110.416 326.24 111.1 325.136 111.604C324.056 112.084 322.808 112.324 321.392 112.324Z" fill="#6E6E6E"/>
</svg>
