<svg width="400" height="400" viewBox="0 0 400 400" fill="none" xmlns="http://www.w3.org/2000/svg">
<path d="M245.168 99H77.668V244.167H245.168V99Z" stroke="#4F4F4F" stroke-width="22.3333" stroke-linecap="round" stroke-linejoin="round"/>
<path d="M245.168 154.833H289.835L323.335 188.333V244.167H245.168V154.833Z" stroke="#4F4F4F" stroke-width="22.3333" stroke-linecap="round" stroke-linejoin="round"/>
<path d="M127.919 300C143.337 300 155.835 287.501 155.835 272.083C155.835 256.665 143.337 244.167 127.919 244.167C112.501 244.167 100.002 256.665 100.002 272.083C100.002 287.501 112.501 300 127.919 300Z" stroke="#4F4F4F" stroke-width="22.3333" stroke-linecap="round" stroke-linejoin="round"/>
<path d="M273.085 300C288.503 300 301.001 287.501 301.001 272.083C301.001 256.665 288.503 244.167 273.085 244.167C257.667 244.167 245.168 256.665 245.168 272.083C245.168 287.501 257.667 300 273.085 300Z" stroke="#4F4F4F" stroke-width="22.3333" stroke-linecap="round" stroke-linejoin="round"/>
</svg>
