<svg width="461" height="97" viewBox="0 0 461 97" fill="none" xmlns="http://www.w3.org/2000/svg">
<path d="M41 96.3125C36.25 96.2708 32.3125 94.6875 29.1875 91.5625C25.6875 94.6875 21.2708 96.2708 15.9375 96.3125C14.4375 96.3125 13.0208 96.125 11.6875 95.75C4.39583 93.5417 0.75 85.5208 0.75 71.6875C0.75 65.0208 1.47917 58.3125 2.9375 51.5625C4.14583 46.3125 6.20833 43.6667 9.125 43.625C11.7917 43.6667 13.1667 45.2917 13.25 48.5C13.25 49.1667 13.0625 50.625 12.6875 52.875C11.2292 62.4167 10.5 69.2917 10.5 73.5C10.5 82.125 12.8125 86.4792 17.4375 86.5625C20.8542 86.3125 23.5417 84.3958 25.5 80.8125L25.375 78.8125C25.375 76.6458 25.6042 74.0833 26.0625 71.125C27.3958 62.5 29.8958 58.1875 33.5625 58.1875C36.6458 58.2292 38.2083 61.0625 38.25 66.6875C38.25 72.2708 37.3333 77.4375 35.5 82.1875C36.25 85.0625 38.2292 86.5208 41.4375 86.5625C44.3542 86.5625 47.1875 85.5 49.9375 83.375C54.0625 80.125 57.4583 75.0833 60.125 68.25C58.2917 67.9583 56.6042 67.4375 55.0625 66.6875C50.3542 64.3125 48 60.3125 48 54.6875C48 51.9375 49 49.5417 51 47.5C53.25 45.2083 55.8958 44.0625 58.9375 44.0625C61.6458 44.0625 64.0833 44.8125 66.25 46.3125C69.3333 48.5208 70.9375 51.5625 71.0625 55.4375L70.9375 58.625C71.6458 58.2917 72.5417 57.7917 73.625 57.125C75.25 56.125 76.5833 55.625 77.625 55.625C78.2083 55.625 78.7917 55.7917 79.375 56.125C80.7917 56.9167 81.5 58.1042 81.5 59.6875C81.5 60.6458 81.1458 61.5625 80.4375 62.4375C78.5208 64.8125 74.7917 66.5833 69.25 67.75C67.5 73.7083 64.9583 79.0625 61.625 83.8125C55.75 92.1458 48.875 96.3125 41 96.3125ZM59.8125 52.75C59.3958 52.75 58.9583 52.8333 58.5 53C57.1667 53.5 56.5 54.4167 56.5 55.75C56.5 55.9167 56.5208 56.0833 56.5625 56.25C56.8542 58.4167 58.8125 59.625 62.4375 59.875C62.6458 58.9167 62.75 57.9167 62.75 56.875C62.7083 54.375 61.7292 53 59.8125 52.75ZM75.0625 76.875C75.0625 75.4583 75.1458 73.9583 75.3125 72.375C76.1875 65.25 78.4375 58.9167 82.0625 53.375C86.4792 46.5833 91.7917 43.1875 98 43.1875C99.6667 43.1875 101.271 43.3958 102.812 43.8125C108.312 45.3958 111.062 49.2708 111.062 55.4375C111.062 55.8958 111.042 56.375 111 56.875C110.583 62.4583 108.083 67.1458 103.5 70.9375C99 74.6875 93.7708 76.5625 87.8125 76.5625C86.6875 76.5625 85.5833 76.4583 84.5 76.25C84.4167 76.875 84.375 77.75 84.375 78.875C84.375 81.2917 84.7917 83.1667 85.625 84.5C86.75 86.2083 89.0625 87.2083 92.5625 87.5C94.1042 87.5 95.625 87.3333 97.125 87C99.75 86.375 102.854 84.8958 106.438 82.5625C108.771 81.0208 110.417 80.25 111.375 80.25C111.917 80.25 112.479 80.4167 113.062 80.75C114.396 81.5417 115.062 82.6875 115.062 84.1875C115.062 84.6875 114.958 85.2292 114.75 85.8125C113.625 88.5208 110.25 91.0833 104.625 93.5C99.4167 95.75 94.8333 96.875 90.875 96.875C89.375 96.875 87.9792 96.75 86.6875 96.5C78.9375 94.9167 75.0625 88.375 75.0625 76.875ZM95.125 53C91.3333 55.5417 88.3542 60.375 86.1875 67.5C87.2292 67.75 88.2292 67.875 89.1875 67.875C92.6458 67.875 95.6667 66.8125 98.25 64.6875C101.125 62.3542 102.562 59.5833 102.562 56.375C102.562 53.1667 101.542 51.5417 99.5 51.5C98.0417 51.5417 96.5833 52.0417 95.125 53ZM138.25 0.375C138.667 0.375 139.104 0.395833 139.562 0.4375C146.771 0.895833 150.375 5.08333 150.375 13C150.375 21.5 146.75 30.9583 139.5 41.375C134.75 48.1667 129.729 53.7292 124.438 58.0625C124.771 60.7292 125.188 63.2083 125.688 65.5C128.646 79.6667 133.958 86.75 141.625 86.75C144.583 86.75 147.396 85.8958 150.062 84.1875C154.896 81.0625 158.75 75.6458 161.625 67.9375C159.583 67.6458 157.708 67.0417 156 66.125C151.583 63.7083 149.375 59.7917 149.375 54.375C149.375 51.625 150.375 49.2292 152.375 47.1875C154.625 44.8958 157.271 43.75 160.312 43.75C163.312 43.75 165.896 44.5833 168.062 46.25C170.979 48.5417 172.438 51.7083 172.438 55.75C172.396 57.4167 172.375 58.2708 172.375 58.3125C173.083 57.9792 173.958 57.5 175 56.875C176.625 55.8333 177.979 55.3125 179.062 55.3125C179.646 55.3125 180.229 55.4792 180.812 55.8125C182.188 56.5625 182.875 57.75 182.875 59.375C182.875 60.3333 182.521 61.25 181.812 62.125C179.896 64.5 176.167 66.2708 170.625 67.4375C168.75 74.2292 165.792 80.1667 161.75 85.25C156.042 92.4167 149.583 96 142.375 96C132.042 95.9583 124.479 89.5208 119.688 76.6875C116.396 67.7708 114.75 57.1667 114.75 44.875C114.75 44.1667 114.792 43.2708 114.875 42.1875C115.458 33.4375 117.104 25.3958 119.812 18.0625C124.188 6.27083 130.333 0.375 138.25 0.375ZM124.875 36.9375C124.417 40.3125 124.125 43.5625 124 46.6875C126.625 44.0625 129.271 40.8958 131.938 37.1875C138.562 27.9792 141.875 20.1667 141.875 13.75C141.875 13.4167 141.792 13.0208 141.625 12.5625C140.958 10.7292 139.875 9.8125 138.375 9.8125C135 9.85417 132.167 12.1042 129.875 16.5625C127.792 20.7292 126.125 27.5208 124.875 36.9375ZM161.188 52.4375C160.771 52.4375 160.333 52.5208 159.875 52.6875C158.542 53.1875 157.875 54.1042 157.875 55.4375C157.917 57.8125 159.917 59.1875 163.875 59.5625C163.875 59.2708 163.896 58.8333 163.938 58.25C164.021 57.375 164.062 56.75 164.062 56.375C164.062 56.1667 164.042 55.9375 164 55.6875C163.792 53.5208 162.854 52.4375 161.188 52.4375ZM226.438 60.0625C226.479 59.9792 226.562 59.7917 226.688 59.5C230.479 50.9167 232.375 46.5833 232.375 46.5C232.375 46.4583 232.396 46.4167 232.438 46.375C233.271 44.25 234.854 43.1875 237.188 43.1875C238.021 43.2292 238.875 43.3125 239.75 43.4375C246.75 44.5208 252.438 48.0833 256.812 54.125C260.854 59.75 262.875 66.1667 262.875 73.375C262.875 77.1667 262.125 81.1458 260.625 85.3125C258.458 91.4375 255.5 94.5 251.75 94.5C251.083 94.5 250.396 94.2708 249.688 93.8125C248.354 92.8125 247.688 91.5208 247.688 89.9375C247.688 89.3958 247.812 88.8333 248.062 88.25C248.062 88.25 248.292 87.8333 248.75 87C251.75 82.125 253.271 77.2708 253.312 72.4375C253.312 71.8958 253.292 71.3333 253.25 70.75C252.833 65.375 250.75 60.7917 247 57C244.542 54.5 242.333 53.2292 240.375 53.1875C239.667 54.5208 238.146 57.5 235.812 62.125C235.812 62.125 235.792 62.1667 235.75 62.25C235.708 62.3333 235.667 62.3958 235.625 62.4375C233.833 65.8958 231.938 67.625 229.938 67.625C229.354 67.625 228.75 67.5 228.125 67.25C226.458 66.5 225.625 65.25 225.625 63.5C225.625 62.8333 225.833 61.8958 226.25 60.6875C226.333 60.3958 226.396 60.1875 226.438 60.0625ZM268.688 26.8125C268.729 26.8125 268.938 26.8125 269.312 26.8125C271.646 26.8958 273.75 26.9375 275.625 26.9375L278.375 7.625C278.542 6.33333 278.75 5.25 279 4.375C279.75 1.625 281.271 0.25 283.562 0.25C284.021 0.25 284.479 0.291667 284.938 0.375C286.854 0.833333 287.812 2.64583 287.812 5.8125C287.812 6.8125 286.979 13.8542 285.312 26.9375H291.875C293 26.9375 293.979 27.1667 294.812 27.625C296.271 28.5 297 29.7917 297 31.5C297 32.25 296.812 32.9583 296.438 33.625C295.479 35.2083 293.917 36 291.75 36H284C280.75 61 279.125 75.0208 279.125 78.0625C279.125 79.9792 279.521 81.7708 280.312 83.4375C281.479 85.9375 283.021 87.1875 284.938 87.1875C285.396 87.1875 285.875 87.125 286.375 87C287.5 86.7083 289.104 85.75 291.188 84.125C293.229 82.5 294.938 81.6875 296.312 81.6875C296.896 81.6875 297.458 81.8125 298 82.0625C299.5 82.8125 300.25 83.9583 300.25 85.5C300.125 87.6667 298.521 89.9167 295.438 92.25C291.688 94.9583 287.708 96.3125 283.5 96.3125C279.375 96.2708 276 94.5417 273.375 91.125C270.708 87.5 269.375 82.9375 269.375 77.4375C269.375 76.2292 271.021 62.4167 274.312 36H268.688C268.438 36 268.188 36 267.938 36C265.062 35.75 263.625 34.25 263.625 31.5C263.625 30.75 263.75 30.0625 264 29.4375C264.75 27.6875 266.312 26.8125 268.688 26.8125ZM321.188 62.1875C321.521 59.6458 321.938 54.875 322.438 47.875C322.479 47.5417 322.521 47.2292 322.562 46.9375C323.062 44.3125 324.667 42.9583 327.375 42.875C327.5 42.875 327.646 42.8958 327.812 42.9375C330.062 43.1875 331.188 44.9375 331.188 48.1875C331.188 49.0208 331.104 50.2708 330.938 51.9375C330.854 52.6875 330.792 53.25 330.75 53.625C330.042 64.9167 329.688 72.0625 329.688 75.0625C329.688 76.1458 329.75 77.2292 329.875 78.3125C330.542 83.6042 332.396 86.25 335.438 86.25C335.854 86.25 336.292 86.2083 336.75 86.125C337.958 85.8333 339.729 84.8542 342.062 83.1875C344.354 81.5208 346.188 80.6875 347.562 80.6875C348.104 80.6875 348.625 80.8542 349.125 81.1875C350.417 81.9792 351.062 83.2083 351.062 84.875C351.062 85 351.042 85.1667 351 85.375C350.708 87.375 348.979 89.4375 345.812 91.5625C341.938 94.1875 338.083 95.5 334.25 95.5C329.083 95.4583 325.396 93.1042 323.188 88.4375C319.521 92.9375 314.5 95.2083 308.125 95.25C306.625 95.25 305.208 95.0625 303.875 94.6875C296.583 92.4792 292.938 84.4583 292.938 70.625C292.938 63.9583 293.667 57.25 295.125 50.5C295.208 50.1667 295.292 49.8125 295.375 49.4375C296.667 44.8542 298.5 42.5625 300.875 42.5625C303.833 42.6042 305.354 44.2292 305.438 47.4375C305.438 48.1042 305.25 49.5833 304.875 51.875C303.417 61.2083 302.688 67.9583 302.688 72.125C302.688 80.7917 304.896 85.1667 309.312 85.25C315.021 85.2083 318.979 77.5208 321.188 62.1875ZM342.062 76.125C342.062 74.7083 342.146 73.2083 342.312 71.625C343.188 64.5 345.438 58.1667 349.062 52.625C353.479 45.8333 358.792 42.4375 365 42.4375C367.167 42.4375 369.271 42.8333 371.312 43.625L376.375 7.625C377.042 2.75 378.792 0.291667 381.625 0.25C382.083 0.25 382.542 0.291667 383 0.375C384.917 0.833333 385.875 2.64583 385.875 5.8125C385.875 7.10417 384.979 14.4375 383.188 27.8125C379.146 58.2708 377.125 75.0208 377.125 78.0625C377.125 79.9792 377.521 81.7708 378.312 83.4375C379.479 85.9375 381.042 87.1875 383 87.1875C383.375 87.1875 383.771 87.1458 384.188 87.0625C385.438 86.8125 387.25 85.8542 389.625 84.1875C391.958 82.5208 393.812 81.6875 395.188 81.6875C395.771 81.6875 396.312 81.8958 396.812 82.3125C397.812 83.1458 398.312 84.2083 398.312 85.5C398.146 87.6667 396.521 89.9375 393.438 92.3125C389.688 94.9792 385.708 96.3125 381.5 96.3125C376.292 96.2708 372.354 93.6458 369.688 88.4375C369.062 89.1875 368.354 89.9167 367.562 90.625C363.562 94.2917 359.5 96.125 355.375 96.125C352.75 96.125 350.479 95.4583 348.562 94.125C344.229 91.125 342.062 85.125 342.062 76.125ZM364.312 80.375C364.854 79.5833 365.521 77.5208 366.312 74.1875C367.979 66.9792 369.25 59.4167 370.125 51.5C369.167 51.0417 368.167 50.75 367.125 50.625C366.375 50.625 365.604 50.7292 364.812 50.9375C360.938 52.0208 357.667 55.6042 355 61.6875C352.625 67.1458 351.438 72.625 351.438 78.125C351.438 78.5833 351.458 79.0417 351.5 79.5C351.708 84.125 353 86.4375 355.375 86.4375C356.583 86.3958 358.104 85.7292 359.938 84.4375C361.896 83.0208 363.354 81.6667 364.312 80.375ZM402.5 47.5625C402.5 48.7708 402.292 51.375 401.875 55.375C400.583 67.2083 399.938 74.5625 399.938 77.4375C399.938 79.3542 400.333 81.1458 401.125 82.8125C402.292 85.3125 403.854 86.5625 405.812 86.5625C406.229 86.5625 406.667 86.5208 407.125 86.4375C408.333 86.1458 410.083 85.1667 412.375 83.5C414.625 81.8333 416.438 81 417.812 81C418.396 81 418.979 81.2083 419.562 81.625C420.729 82.4583 421.312 83.5625 421.312 84.9375C421.146 87.0625 419.5 89.3125 416.375 91.6875C412.542 94.3542 408.521 95.6875 404.312 95.6875C400.771 95.6875 397.833 94.4583 395.5 92C392 88.25 390.25 82.2917 390.25 74.125C390.25 71.3333 390.812 65.875 391.938 57.75C392.438 53.9583 392.792 51.1667 393 49.375C393.042 49 393.083 48.625 393.125 48.25C393.792 44.0833 395.5 42 398.25 42C398.708 42 399.167 42.0417 399.625 42.125C401.542 42.5833 402.5 44.3958 402.5 47.5625ZM395.375 31.1875C395.375 30.4375 395.542 29.7292 395.875 29.0625C396.708 27.4375 398.062 26.625 399.938 26.625C400.688 26.625 401.396 26.7917 402.062 27.125C403.688 27.9583 404.5 29.3125 404.5 31.1875C404.5 31.9375 404.333 32.6458 404 33.3125C403.167 34.9375 401.812 35.75 399.938 35.75C399.188 35.75 398.479 35.5833 397.812 35.25C396.188 34.4167 395.375 33.0625 395.375 31.1875ZM431.125 43.5C432.583 43.5417 433.958 43.6875 435.25 43.9375C441.667 45.3125 445.604 50.3125 447.062 58.9375C447.854 58.4792 449.167 57.625 451 56.375C453.5 54.6667 455.396 53.8125 456.688 53.8125C457.312 53.8125 457.917 54 458.5 54.375C459.792 55.2083 460.438 56.3333 460.438 57.75C460.396 59.1667 459.479 60.7292 457.688 62.4375C455.146 64.7708 451.854 66.75 447.812 68.375C447.771 74.875 446.792 80.375 444.875 84.875C441.75 92.2083 436.625 95.875 429.5 95.875C426.958 95.875 424.417 95.0625 421.875 93.4375C416 89.5625 413.062 82.5833 413.062 72.5C413.062 66.4167 414.083 60.875 416.125 55.875C419.333 48 424.333 43.875 431.125 43.5ZM438.938 70C437.312 69.9583 435.771 69.7917 434.312 69.5C428.812 68.3333 425.271 65.4167 423.688 60.75C422.604 64.25 422.062 68.0625 422.062 72.1875C422.062 74.1875 422.25 76.125 422.625 78C423.792 83.7083 426.333 86.5625 430.25 86.5625C431.542 86.5625 432.708 86.1667 433.75 85.375C436.792 83.0417 438.521 77.9167 438.938 70ZM438 61.5C438 61.5 438.292 61.5 438.875 61.5C438.25 55.7917 436.75 52.9167 434.375 52.875C434.167 52.875 433.958 52.8958 433.75 52.9375C432.833 53.2708 432.375 53.9583 432.375 55C432.375 55.9167 432.521 56.8125 432.812 57.6875C433.729 60.2292 435.458 61.5 438 61.5Z" fill="black"/>
</svg>
