<svg width="812" height="100" viewBox="0 0 812 100" fill="none" xmlns="http://www.w3.org/2000/svg"><path d="M76.5067 0H105.891C109.546 0 112.509 2.95486 112.509 6.59986V34.8118C112.509 35.5788 111.122 35.8297 110.813 35.1273C107.318 27.1776 97.7614 10.56 76.2502 1.36994C75.571 1.0798 75.7679 0 76.5067 0Z" fill="white"></path><path d="M6.61817 100H36.0021C36.741 100 36.9378 98.9202 36.2587 98.6301C14.7474 89.44 5.19108 72.8223 1.69564 64.8727C1.38678 64.1703 9.66019e-07 64.4212 9.66019e-07 65.1882V93.4001C9.66019e-07 97.0451 2.96306 100 6.61817 100Z" fill="white"></path><path d="M34.3279 24.1177C14.5587 17.4479 7.27402 6.0733 6.10286 1.21971C-9.73126 28.8382 8.95269 46.7026 20.2739 52.1825C39.1687 60.4414 79.5348 78.298 89.841 83.6526C100.312 89.7095 103.599 96.5476 104.464 98.3472C104.605 98.641 104.682 98.8005 104.715 98.8005C120.549 70.9001 97.1803 51.8693 83.5167 45.8415C75.2015 42.0447 53.7223 32.3845 34.3279 24.1177Z" fill="white"></path><path d="M591.274 98.9893L563.984 69.442V98.9893H555.494V9.74442H563.984V62.5677L590.667 33.141H602.553L571.14 65.9445L602.796 98.9893H591.274Z" fill="white"></path><path d="M170.818 99.8335C165.239 99.8335 160.306 98.8687 156.021 96.9391C151.816 95.0094 148.501 92.316 146.075 88.8588C143.65 85.4015 142.356 81.5423 142.194 77.2811H151.17C151.574 81.3815 153.393 84.9995 156.627 88.1352C159.862 91.1904 164.592 92.718 170.818 92.718C176.559 92.718 181.087 91.2708 184.402 88.3764C187.798 85.4015 189.496 81.6629 189.496 77.1605C189.496 73.5424 188.566 70.648 186.707 68.4772C184.847 66.226 182.542 64.5777 179.793 63.5325C177.044 62.4069 173.244 61.2009 168.392 59.9145C162.732 58.3869 158.245 56.8995 154.929 55.4523C151.614 54.005 148.784 51.7538 146.439 48.6986C144.094 45.6434 142.922 41.5027 142.922 36.2767C142.922 31.935 144.054 28.0758 146.318 24.699C148.582 21.2417 151.776 18.5483 155.9 16.6187C160.023 14.6891 164.754 13.7243 170.09 13.7243C177.933 13.7243 184.24 15.6539 189.011 19.5131C193.862 23.2919 196.652 28.1964 197.38 34.2265H188.162C187.596 30.7692 185.696 27.714 182.462 25.0608C179.227 22.3271 174.861 20.9603 169.363 20.9603C164.268 20.9603 160.023 22.3271 156.627 25.0608C153.231 27.714 151.533 31.3722 151.533 36.0355C151.533 39.5731 152.463 42.4273 154.323 44.5982C156.183 46.769 158.487 48.4172 161.236 49.5428C164.066 50.6684 167.867 51.8744 172.637 53.1608C178.136 54.6884 182.583 56.2161 185.979 57.7437C189.375 59.1909 192.245 61.4421 194.59 64.4973C196.935 67.5526 198.107 71.653 198.107 76.7987C198.107 80.7383 197.056 84.4769 194.954 88.0146C192.852 91.5522 189.739 94.4064 185.615 96.5772C181.491 98.7481 176.559 99.8335 170.818 99.8335Z" fill="white"></path><path d="M221.046 81.1403V40.2565H232.308V33.141H221.046V19.2402H212.434V81.1403C212.434 87.492 213.89 92.0748 216.801 94.8888C219.711 97.6224 224.716 98.9893 230.699 98.9893L231.476 91.7532C227.595 91.7532 224.886 90.9894 223.35 89.4618C221.814 87.9342 221.046 85.1603 221.046 81.1403Z" fill="white"></path><path fill-rule="evenodd" clip-rule="evenodd" d="M246.431 48.2162C243.763 53.2814 242.429 59.1909 242.429 65.9445C242.429 72.6982 243.763 78.6479 246.431 83.7935C249.18 88.9392 252.94 92.919 257.711 95.733C262.562 98.5471 267.98 99.9541 273.963 99.9541C280.27 99.9541 285.688 98.5069 290.216 95.6124C294.825 92.6376 298.18 88.899 300.283 84.3965V98.9893H308.773V33.141H300.283V47.6132C298.261 43.1107 294.946 39.4123 290.337 36.5179C285.809 33.6234 280.392 32.1762 274.085 32.1762C268.02 32.1762 262.562 33.5832 257.711 36.3973C252.94 39.1309 249.18 43.0705 246.431 48.2162ZM297.008 52.0754C299.191 56.0955 300.283 60.7587 300.283 66.0652C300.283 71.3716 299.191 76.0348 297.008 80.0549C294.825 84.0749 291.833 87.1704 288.033 89.3412C284.313 91.512 280.189 92.5974 275.661 92.5974C270.972 92.5974 266.767 91.5522 263.048 89.4618C259.328 87.291 256.377 84.1955 254.194 80.1755C252.091 76.075 251.04 71.3314 251.04 65.9445C251.04 60.4773 252.091 55.7739 254.194 51.8342C256.377 47.8142 259.328 44.759 263.048 42.6685C266.767 40.5781 270.972 39.5329 275.661 39.5329C280.189 39.5329 284.313 40.6183 288.033 42.7891C291.833 44.96 294.825 48.0554 297.008 52.0754Z" fill="white"></path><path d="M345.135 35.3119C341.335 37.5631 338.505 40.7389 336.645 44.8393V33.141H328.155V98.9893H336.645V62.2059C336.645 54.4874 338.505 48.98 342.224 45.6836C345.944 42.3871 350.876 40.7389 357.021 40.7389H359.326V31.935C353.746 31.935 349.016 33.0606 345.135 35.3119Z" fill="white"></path><path d="M383.013 96.9391C387.299 98.8687 392.231 99.8335 397.81 99.8335C403.551 99.8335 408.484 98.7481 412.607 96.5772C416.731 94.4064 419.844 91.5522 421.947 88.0146C424.049 84.4769 425.1 80.7383 425.1 76.7987C425.1 71.653 423.928 67.5526 421.583 64.4973C419.238 61.4421 416.367 59.1909 412.971 57.7437C409.575 56.2161 405.128 54.6884 399.63 53.1608C394.859 51.8744 391.059 50.6684 388.229 49.5428C385.48 48.4172 383.175 46.769 381.315 44.5982C379.456 42.4273 378.526 39.5731 378.526 36.0355C378.526 31.3722 380.224 27.714 383.62 25.0608C387.016 22.3271 391.261 20.9603 396.355 20.9603C401.853 20.9603 406.22 22.3271 409.454 25.0608C412.688 27.714 414.588 30.7692 415.154 34.2265H424.372C423.645 28.1964 420.855 23.2919 416.004 19.5131C411.233 15.6539 404.926 13.7243 397.083 13.7243C391.746 13.7243 387.016 14.6891 382.892 16.6187C378.768 18.5483 375.575 21.2417 373.311 24.699C371.047 28.0758 369.915 31.935 369.915 36.2767C369.915 41.5027 371.087 45.6434 373.432 48.6986C375.777 51.7538 378.607 54.005 381.922 55.4523C385.237 56.8995 389.725 58.3869 395.385 59.9145C400.236 61.2009 404.037 62.4069 406.786 63.5325C409.535 64.5777 411.839 66.226 413.699 68.4772C415.559 70.648 416.489 73.5424 416.489 77.1605C416.489 81.6629 414.791 85.4015 411.395 88.3764C408.079 91.2708 403.551 92.718 397.81 92.718C391.584 92.718 386.854 91.1904 383.62 88.1352C380.386 84.9995 378.566 81.3815 378.162 77.2811H369.187C369.349 81.5423 370.642 85.4015 373.068 88.8588C375.494 92.316 378.809 95.0094 383.013 96.9391Z" fill="white"></path><path d="M448.385 81.1403V40.2565H459.647V33.141H448.385V19.5131H439.773V81.1403C439.773 87.492 441.229 92.0748 444.14 94.8888C447.051 97.6224 451.498 98.9893 457.481 98.9893H458.815V91.7532C454.934 91.7532 452.225 90.9894 450.689 89.4618C449.153 87.9342 448.385 85.1603 448.385 81.1403Z" fill="white"></path><path fill-rule="evenodd" clip-rule="evenodd" d="M473.77 48.2162C471.102 53.2814 469.768 59.1909 469.768 65.9445C469.768 72.6982 471.102 78.6479 473.77 83.7935C476.519 88.9392 480.279 92.919 485.05 95.733C489.901 98.5471 495.319 99.9541 501.302 99.9541C507.609 99.9541 513.027 98.5069 517.555 95.6124C522.164 92.6376 525.519 88.899 527.622 84.3965V98.9893H536.112V33.141H527.622V47.6132C525.6 43.1107 522.285 39.4123 517.676 36.5179C513.148 33.6234 507.731 32.1762 501.424 32.1762C495.359 32.1762 489.901 33.5832 485.05 36.3973C480.279 39.1309 476.519 43.0705 473.77 48.2162ZM524.347 52.0754C526.53 56.0955 527.622 60.7587 527.622 66.0652C527.622 71.3716 526.53 76.0348 524.347 80.0549C522.164 84.0749 519.172 87.1704 515.372 89.3412C511.652 91.512 507.528 92.5974 503 92.5974C498.311 92.5974 494.106 91.5522 490.387 89.4618C486.667 87.291 483.716 84.1955 481.533 80.1755C479.43 76.075 478.379 71.3314 478.379 65.9445C478.379 60.4773 479.43 55.7739 481.533 51.8342C483.716 47.8142 486.667 44.759 490.387 42.6685C494.106 40.5781 498.311 39.5329 503 39.5329C507.528 39.5329 511.652 40.6183 515.372 42.7891C519.172 44.96 522.164 48.0554 524.347 52.0754Z" fill="white"></path><path fill-rule="evenodd" clip-rule="evenodd" d="M673.684 62.6883C673.684 65.5827 673.603 67.7938 673.442 69.3214H618.499C618.741 74.3062 619.954 78.5675 622.137 82.1051C624.321 85.6427 627.191 88.3362 630.749 90.1854C634.306 91.9542 638.188 92.8386 642.392 92.8386C647.89 92.8386 652.5 91.512 656.219 88.8588C660.019 86.2055 662.526 82.6277 663.739 78.1253H672.714C671.097 84.5573 667.62 89.8236 662.283 93.924C657.027 97.9441 650.397 99.9541 642.392 99.9541C636.166 99.9541 630.587 98.5873 625.655 95.8537C620.722 93.0396 616.841 89.1 614.011 84.0347C611.262 78.8891 609.887 72.8992 609.887 66.0652C609.887 59.2311 611.262 53.2412 614.011 48.0956C616.76 42.9499 620.601 39.0103 625.533 36.2767C630.466 33.543 636.085 32.1762 642.392 32.1762C648.699 32.1762 654.197 33.543 658.887 36.2767C663.658 39.0103 667.296 42.7087 669.803 47.372C672.39 51.9548 673.684 57.0603 673.684 62.6883ZM665.073 62.4471C665.154 57.5427 664.143 53.3618 662.041 49.9046C660.019 46.4474 657.23 43.8343 653.672 42.0655C650.114 40.2967 646.233 39.4123 642.028 39.4123C635.721 39.4123 630.344 41.4223 625.897 45.4424C621.45 49.4624 618.984 55.1306 618.499 62.4471H665.073Z" fill="white"></path><path d="M681.481 15.047C681.481 10.5706 685.11 6.94173 689.586 6.94173H803.06C807.536 6.94173 811.165 10.5706 811.165 15.047V43.4154C811.165 47.8918 807.536 51.5206 803.06 51.5206H689.586C685.11 51.5206 681.481 47.8918 681.481 43.4154V15.047Z" fill="#564ECE"></path><path d="M698.029 40.7056V19.4845H706.878C708.467 19.4845 709.797 19.709 710.868 20.1581C711.945 20.6071 712.754 21.2357 713.292 22.0439C713.838 22.8521 714.111 23.7882 714.111 24.852C714.111 25.6602 713.942 26.3821 713.603 27.0176C713.265 27.6462 712.798 28.1678 712.204 28.5822C711.61 28.9967 710.923 29.2868 710.142 29.4526V29.6599C710.999 29.7013 711.79 29.9327 712.515 30.3541C713.247 30.7755 713.835 31.3626 714.277 32.1156C714.719 32.8617 714.94 33.7459 714.94 34.7682C714.94 35.908 714.65 36.927 714.07 37.825C713.489 38.7161 712.65 39.4207 711.552 39.9388C710.453 40.45 709.12 40.7056 707.552 40.7056H698.029ZM703.159 36.5712H706.329C707.441 36.5712 708.26 36.3605 708.785 35.9391C709.317 35.5177 709.583 34.9306 709.583 34.1776C709.583 33.6319 709.455 33.1622 709.199 32.7684C708.944 32.3677 708.581 32.0603 708.112 31.8462C707.642 31.6251 707.079 31.5146 706.422 31.5146H703.159V36.5712ZM703.159 28.2092H705.998C706.557 28.2092 707.055 28.1159 707.49 27.9294C707.925 27.7429 708.263 27.4735 708.505 27.1212C708.754 26.7689 708.878 26.3441 708.878 25.8467C708.878 25.1352 708.626 24.5757 708.122 24.1681C707.618 23.7605 706.937 23.5567 706.081 23.5567H703.159V28.2092Z" fill="white"></path><path d="M724.701 40.7056V19.4845H739.497V23.65H729.83V28.002H738.741V32.1778H729.83V36.5401H739.497V40.7056H724.701Z" fill="white"></path><path d="M749.31 23.65V19.4845H767.246V23.65H760.812V40.7056H755.755V23.65H749.31Z" fill="white"></path><path d="M778.986 40.7056H773.474L780.634 19.4845H787.462L794.622 40.7056H789.11L784.126 24.8312H783.96L778.986 40.7056ZM778.251 32.3539H789.773V36.25H778.251V32.3539Z" fill="white"></path></svg>